<?xml version="1.0" encoding="utf-8"?>
<!-- Generator: Adobe Illustrator 17.1.0, SVG Export Plug-In . SVG Version: 6.00 Build 0)  -->
<!DOCTYPE svg PUBLIC "-//W3C//DTD SVG 1.1//EN" "http://www.w3.org/Graphics/SVG/1.1/DTD/svg11.dtd">
<svg version="1.1" id="Layer_1" xmlns="http://www.w3.org/2000/svg" xmlns:xlink="http://www.w3.org/1999/xlink" x="0px" y="0px"
	 viewBox="105.7 222.5 393.3 269.7" enable-background="new 105.7 222.5 393.3 269.7" xml:space="preserve">
<g id="Layer_1_1_" display="none">
	<g display="inline">
		<path fill="#29ABE2" d="M387.3,384.3c-2.3-13.7-12.4-24.7-25.5-28.5c0.2-1.3,0.4-2.7,0.4-4c0,0,0,0,0,0
			c0-14.1-11.5-25.6-25.6-25.6c-7.1,0-13.6,3-18.3,7.7c-1.3-3.4-4.5-5.8-8.3-5.8c-5,0-9,4-9,9c0,5,3.4,7.1,10.5,10.5
			c1,0.4,1.9,0.9,2.8,1.4c0.6,0.3,1.1,0.6,1.6,1c0.4,0.2,0.8,0.5,1.2,0.7c0.2,0.2,0.5,0.3,0.7,0.5c2.2,1.4,4.2,3,6.1,4.8
			c0.1,0.1,0.2,0.2,0.3,0.3c0.8,0.7,1.5,1.5,2.3,2.3c0.2,0.2,0.4,0.4,0.6,0.6c0.8,0.9,1.6,1.8,2.3,2.8c6,7.9,9.6,17.9,9.6,28.5
			s-3.6,20.6-9.6,28.5c-0.7,1-1.5,1.9-2.3,2.8c-0.2,0.2-0.4,0.4-0.6,0.6c-0.7,0.8-1.5,1.6-2.3,2.3c-0.1,0.1-0.2,0.2-0.3,0.3
			c-1.9,1.8-3.9,3.4-6.1,4.8c-0.2,0.2-0.5,0.3-0.7,0.5c-0.4,0.3-0.8,0.5-1.2,0.7c-0.5,0.3-1.1,0.7-1.7,1c-0.9,0.5-1.9,1-2.8,1.4
			c-7.2,3.3-10.5,5.5-10.5,10.5c0,5,4,9,9,9c3.9,0,7.1-2.4,8.3-5.8c4.7,4.7,11.1,7.7,18.3,7.7c14.1,0,25.6-11.5,25.6-25.6v0
			c0-1.4-0.2-2.7-0.4-4c13.1-3.8,23.2-14.8,25.5-28.5c0.3-2,0.5-4,0.5-6S387.7,386.2,387.3,384.3z"/>
		<path fill="#29ABE2" d="M275.6,433.2c-1-0.4-1.9-0.9-2.8-1.4c-0.6-0.3-1.1-0.6-1.7-1c-0.4-0.2-0.8-0.5-1.2-0.7
			c-0.2-0.2-0.5-0.3-0.7-0.5c-2.2-1.4-4.2-3-6.1-4.8c-0.1-0.1-0.2-0.2-0.3-0.3c-0.8-0.7-1.5-1.5-2.3-2.3c-0.2-0.2-0.4-0.4-0.6-0.6
			c-0.8-0.9-1.6-1.8-2.3-2.8c-6-7.9-9.6-17.9-9.6-28.5s3.6-20.6,9.6-28.5c0.7-1,1.5-1.9,2.3-2.8c0.2-0.2,0.4-0.4,0.6-0.6
			c0.7-0.8,1.5-1.6,2.3-2.3c0.1-0.1,0.2-0.2,0.3-0.3c1.9-1.8,3.9-3.4,6.1-4.8c0.2-0.2,0.5-0.3,0.7-0.5c0.4-0.3,0.8-0.5,1.2-0.7
			c0.5-0.3,1.1-0.7,1.6-1c0.9-0.5,1.9-1,2.8-1.4c7.2-3.3,10.5-5.5,10.5-10.5c0-5-4-9-9-9c-3.9,0-7.1,2.4-8.3,5.8
			c-4.7-4.7-11.1-7.7-18.3-7.7c-14.1,0-25.6,11.5-25.6,25.6c0,0,0,0,0,0c0,1.4,0.2,2.7,0.4,4c-13.1,3.8-23.2,14.8-25.5,28.5
			c-0.3,2-0.5,4-0.5,6s0.2,4.1,0.5,6c2.3,13.7,12.4,24.7,25.5,28.5c-0.2,1.3-0.4,2.7-0.4,4v0c0,14.1,11.5,25.6,25.6,25.6
			c7.2,0,13.6-3,18.3-7.7c1.3,3.4,4.5,5.8,8.3,5.8c5,0,9-4,9-9C286.1,438.8,282.8,436.6,275.6,433.2z"/>
		<path fill="#29ABE2" d="M321.5,390.3c0-15.4-12.5-27.9-27.9-27.9c-15.4,0-27.9,12.5-27.9,27.9c0,15.4,12.5,27.9,27.9,27.9
			C309,418.2,321.5,405.7,321.5,390.3z"/>
	</g>
	<g display="inline">
		<path fill="#29ABE2" d="M387.3,384.3c-2.3-13.7-12.4-24.7-25.5-28.5c0.2-1.3,0.4-2.7,0.4-4c0,0,0,0,0,0
			c0-14.1-11.5-25.6-25.6-25.6c-7.1,0-13.6,3-18.3,7.7c-1.3-3.4-4.5-5.8-8.3-5.8c-5,0-9,4-9,9c0,5,3.4,7.1,10.5,10.5
			c1,0.4,1.9,0.9,2.8,1.4c0.6,0.3,1.1,0.6,1.6,1c0.4,0.2,0.8,0.5,1.2,0.7c0.2,0.2,0.5,0.3,0.7,0.5c2.2,1.4,4.2,3,6.1,4.8
			c0.1,0.1,0.2,0.2,0.3,0.3c0.8,0.7,1.5,1.5,2.3,2.3c0.2,0.2,0.4,0.4,0.6,0.6c0.8,0.9,1.6,1.8,2.3,2.8c6,7.9,9.6,17.9,9.6,28.5
			s-3.6,20.6-9.6,28.5c-0.7,1-1.5,1.9-2.3,2.8c-0.2,0.2-0.4,0.4-0.6,0.6c-0.7,0.8-1.5,1.6-2.3,2.3c-0.1,0.1-0.2,0.2-0.3,0.3
			c-1.9,1.8-3.9,3.4-6.1,4.8c-0.2,0.2-0.5,0.3-0.7,0.5c-0.4,0.3-0.8,0.5-1.2,0.7c-0.5,0.3-1.1,0.7-1.7,1c-0.9,0.5-1.9,1-2.8,1.4
			c-7.2,3.3-10.5,5.5-10.5,10.5c0,5,4,9,9,9c3.9,0,7.1-2.4,8.3-5.8c4.7,4.7,11.1,7.7,18.3,7.7c14.1,0,25.6-11.5,25.6-25.6v0
			c0-1.4-0.2-2.7-0.4-4c13.1-3.8,23.2-14.8,25.5-28.5c0.3-2,0.5-4,0.5-6S387.7,386.2,387.3,384.3z"/>
		<path fill="#29ABE2" d="M275.6,433.2c-1-0.4-1.9-0.9-2.8-1.4c-0.6-0.3-1.1-0.6-1.7-1c-0.4-0.2-0.8-0.5-1.2-0.7
			c-0.2-0.2-0.5-0.3-0.7-0.5c-2.2-1.4-4.2-3-6.1-4.8c-0.1-0.1-0.2-0.2-0.3-0.3c-0.8-0.7-1.5-1.5-2.3-2.3c-0.2-0.2-0.4-0.4-0.6-0.6
			c-0.8-0.9-1.6-1.8-2.3-2.8c-6-7.9-9.6-17.9-9.6-28.5s3.6-20.6,9.6-28.5c0.7-1,1.5-1.9,2.3-2.8c0.2-0.2,0.4-0.4,0.6-0.6
			c0.7-0.8,1.5-1.6,2.3-2.3c0.1-0.1,0.2-0.2,0.3-0.3c1.9-1.8,3.9-3.4,6.1-4.8c0.2-0.2,0.5-0.3,0.7-0.5c0.4-0.3,0.8-0.5,1.2-0.7
			c0.5-0.3,1.1-0.7,1.6-1c0.9-0.5,1.9-1,2.8-1.4c7.2-3.3,10.5-5.5,10.5-10.5c0-5-4-9-9-9c-3.9,0-7.1,2.4-8.3,5.8
			c-4.7-4.7-11.1-7.7-18.3-7.7c-14.1,0-25.6,11.5-25.6,25.6c0,0,0,0,0,0c0,1.4,0.2,2.7,0.4,4c-13.1,3.8-23.2,14.8-25.5,28.5
			c-0.3,2-0.5,4-0.5,6s0.2,4.1,0.5,6c2.3,13.7,12.4,24.7,25.5,28.5c-0.2,1.3-0.4,2.7-0.4,4v0c0,14.1,11.5,25.6,25.6,25.6
			c7.2,0,13.6-3,18.3-7.7c1.3,3.4,4.5,5.8,8.3,5.8c5,0,9-4,9-9C286.1,438.8,282.8,436.6,275.6,433.2z"/>
		<path fill="#29ABE2" d="M321.5,390.3c0-15.4-12.5-27.9-27.9-27.9c-15.4,0-27.9,12.5-27.9,27.9c0,15.4,12.5,27.9,27.9,27.9
			C309,418.2,321.5,405.7,321.5,390.3z"/>
	</g>
	<g display="inline">
		<path fill="#29ABE2" d="M178.4,499.5c0,0.4-0.2,0.7-0.4,0.9c-2.1,1.6-4.7,2.4-7.3,2.4c-6.5,0-11.9-5.3-11.9-11.8
			c0-6.6,5.4-12,11.9-12c2.6,0,5.3,0.9,7.3,2.5c0.8,0.7,0.4,1.8-0.6,1.8c-0.2,0-0.4,0-0.6-0.2c-1.6-1.2-3.9-2.1-6-2.1
			c-5.3,0-9.8,4.5-9.8,9.9c0,5.3,4.4,9.7,9.8,9.7c2.2,0,4.4-0.7,6-2C177.3,498.3,178.4,498.6,178.4,499.5z"/>
		<path fill="#29ABE2" d="M184.7,472.5c0-0.2-0.1-0.5-0.3-0.6c-0.8-0.4-0.8-0.9-0.8-1.1c0-1.1,1.1-1.1,1.1-1.1
			c0.6,0,2.1,0.6,2.1,2.8v27.3c0,0.2,0.1,0.5,0.3,0.6c0.8,0.4,0.8,0.9,0.8,1.1c0,1.1-1.1,1.1-1.1,1.1c-0.6,0-2.1-0.6-2.1-2.8
			L184.7,472.5L184.7,472.5z"/>
		<path fill="#29ABE2" d="M193.1,491c0-6.6,5.3-11.9,11.9-11.9c6.6,0,11.9,5.4,11.9,11.9s-5.3,11.9-11.9,11.9S193.1,497.5,193.1,491
			z M195.1,491c0,5.4,4.4,9.8,9.8,9.8s9.8-4.4,9.8-9.8s-4.4-9.9-9.8-9.9S195.1,485.6,195.1,491z"/>
		<path fill="#29ABE2" d="M239.7,498.3c-1.3,2.7-4.7,4.3-7.4,4.3c-6.6,0-10.1-3.5-10.1-10.1V482c0-0.2-0.1-0.5-0.3-0.6
			c-0.8-0.4-0.8-0.9-0.8-1.1c0-1.1,1.1-1.1,1.1-1.1c0.6,0,2.1,0.6,2.1,2.8v10.5c0,5.5,2.6,8.1,8,8.1c4.2,0,7.4-3.1,7.4-7.2V482
			c0-2.2,1.5-2.8,2.1-2.8c0,0,1.1,0,1.1,1.1c0,0.2,0,0.7-0.8,1.1c-0.2,0.1-0.3,0.4-0.3,0.6v17.8c0,0.2,0.1,0.5,0.3,0.6
			c0.8,0.4,0.8,0.9,0.8,1.1c0,1.1-1.1,1.1-1.1,1.1c-0.6,0-2.1-0.6-2.1-2.8L239.7,498.3L239.7,498.3z"/>
		<path fill="#29ABE2" d="M266.9,472.5c0-2.2,1.5-2.8,2.1-2.8c0,0,1.1,0,1.1,1.1c0,0.2,0,0.7-0.8,1.1c-0.2,0.1-0.3,0.4-0.3,0.6v27.3
			c0,0.2,0.1,0.5,0.3,0.6c0.8,0.4,0.8,0.9,0.8,1.1c0,1.1-1.1,1.1-1.1,1.1c-0.6,0-2.1-0.6-2.1-2.8v-2.6c-1.8,4.1-5.6,5.3-8.7,5.3
			c-6.3,0-10.6-5.6-10.6-11.9c0-6.1,4.5-11.4,10.6-11.4c3.4,0,6.4,1,8.7,4.8V472.5z M266.9,490.3c0-4.8-3.7-8.9-8.6-8.9
			c-5.3,0-8.6,4.4-8.6,9.3c0,4.9,3.3,9.9,8.6,9.9c5.5,0,8.6-5.2,8.6-9.9V490.3z"/>
		<path fill="#29ABE2" d="M294.9,483.2c0,1.3-1,2.3-2.2,2.3c-0.5,0-1-0.1-1.4-0.4c-1.3-1-3-1.7-4.4-1.7c-4.1,0-7.5,3.5-7.5,7.5
			c0,4,3.4,7.5,7.5,7.5c1.5,0,3.1-0.6,4.5-1.7c0.4-0.3,0.8-0.4,1.3-0.4c1.2,0,2.3,1,2.3,2.3c0,0.7-0.4,1.3-0.9,1.7
			c-2,1.6-4.6,2.5-7.1,2.5c-6.6,0-11.9-5.3-11.9-11.9c0-6.6,5.3-11.9,11.9-11.9c2.6,0,5.2,0.9,7.2,2.5
			C294.6,481.9,294.9,482.5,294.9,483.2z"/>
		<path fill="#29ABE2" d="M313.2,499.8c-0.5,0.7-2.2,3-6,3c-4.5,0-8.8-3-8.8-7.9c0-5.5,4.4-7.6,9.1-7.6c1.9,0,3.8,0.4,5.6,1.3
			c0-4.6-2-5.3-4.6-5.3c-3.1,0-4.5,0.6-4.5,0.6c-1.4,0.5-2.8-0.4-2.8-1.8c0-1.1,0.7-1.9,1.6-2.2c1.7-0.5,3.5-0.9,5.5-0.9
			c6.2,0,9.3,2.9,9.3,8v10.7c0,0.5,0.2,0.7,0.4,0.9c0,0,0.8,0.4,0.8,1.7c0,1.3-1,2.3-2.3,2.3C314.6,502.6,313.3,501.6,313.2,499.8z
			 M308.7,490.8c-2.7,0-5.7,0.8-5.7,4.1c0,2.4,2.2,3.5,4.4,3.5c2.6,0,5.7-1.7,5.8-4.5v-1.8C311.5,491.1,309.6,490.8,308.7,490.8z"/>
		<path fill="#29ABE2" d="M340.4,489.6c0-3.8-2.4-6.1-6.1-6.1c-3.4,0-6.1,3-6.1,5.9v9.8c0,2-1.4,3.4-3.4,3.4c-1.3,0-2.3-0.9-2.3-2.3
			c0-1.3,0.8-1.8,0.8-1.8c0.2-0.1,0.4-0.3,0.4-0.8v-13.7c0-0.5-0.2-0.6-0.4-0.8c0,0-0.8-0.4-0.8-1.8c0-1.4,1.1-2.3,2.3-2.3
			c1.8,0,3.1,1.2,3.3,3c1.4-1.8,4.3-3.2,6.4-3.2c7.2,0,10.3,3.5,10.3,10.9v7.9c0,0.5,0.2,0.6,0.4,0.8c0,0,0.8,0.4,0.8,1.8
			c0,1.4-1.1,2.3-2.3,2.3c-2,0-3.4-1.4-3.4-3.4L340.4,489.6L340.4,489.6z"/>
		<path fill="#29ABE2" d="M368.2,489.6c0-3.8-2.4-6.1-6.1-6.1c-3.4,0-6.1,3-6.1,5.9v9.8c0,2-1.4,3.4-3.4,3.4c-1.3,0-2.3-0.9-2.3-2.3
			c0-1.3,0.8-1.8,0.8-1.8c0.2-0.1,0.4-0.3,0.4-0.8v-13.7c0-0.5-0.2-0.6-0.4-0.8c0,0-0.8-0.4-0.8-1.8c0-1.4,1.1-2.3,2.3-2.3
			c1.8,0,3.1,1.2,3.3,3c1.4-1.8,4.3-3.2,6.4-3.2c7.2,0,10.3,3.5,10.3,10.9v7.9c0,0.5,0.2,0.6,0.4,0.8c0,0,0.8,0.4,0.8,1.8
			c0,1.4-1.1,2.3-2.3,2.3c-2,0-3.4-1.4-3.4-3.4L368.2,489.6L368.2,489.6z"/>
		<path fill="#29ABE2" d="M377.1,490.9c0-6.6,5.4-11.9,11.9-11.9c6.6,0,11.9,5.3,11.9,11.9c0,6.5-5.3,11.9-11.9,11.9
			C382.5,502.8,377.1,497.4,377.1,490.9z M381.6,490.9c0,4.1,3.3,7.4,7.4,7.4c4.1,0,7.4-3.3,7.4-7.4c0-4.1-3.3-7.4-7.4-7.4
			C384.9,483.5,381.6,486.8,381.6,490.9z"/>
		<path fill="#29ABE2" d="M422.3,489.6c0-3.8-2.4-6.1-6.1-6.1c-3.4,0-6.1,3-6.1,5.9v9.8c0,2-1.4,3.4-3.4,3.4c-1.3,0-2.3-0.9-2.3-2.3
			c0-1.3,0.8-1.8,0.8-1.8c0.2-0.1,0.4-0.3,0.4-0.8v-13.7c0-0.5-0.2-0.6-0.4-0.8c0,0-0.8-0.4-0.8-1.8c0-1.4,1.1-2.3,2.3-2.3
			c1.8,0,3.1,1.2,3.3,3c1.4-1.8,4.3-3.2,6.4-3.2c7.2,0,10.3,3.5,10.3,10.9v7.9c0,0.5,0.2,0.6,0.4,0.8c0,0,0.8,0.4,0.8,1.8
			c0,1.4-1.1,2.3-2.3,2.3c-2,0-3.4-1.4-3.4-3.4L422.3,489.6L422.3,489.6z"/>
	</g>
</g>
<g id="Layer_2">
	<g>
		<path fill="#FFFFFF" d="M449,313.3c-3.6-21.4-19.4-38.5-39.9-44.5c0.3-2.1,0.6-4.2,0.6-6.3c0,0,0,0,0,0c0-22.1-17.9-40-40-40
			c-11.2,0-21.2,4.6-28.5,12c-2-5.3-7-9.1-13-9.1c-7.7,0-14,6.3-14,14c0,7.7,5.3,11.1,16.4,16.4c1.5,0.7,3,1.5,4.4,2.3
			c0.9,0.5,1.7,1,2.6,1.5c0.6,0.4,1.3,0.8,1.9,1.2c0.4,0.2,0.7,0.5,1.1,0.7c3.4,2.2,6.5,4.8,9.5,7.5c0.2,0.1,0.3,0.3,0.5,0.4
			c1.2,1.1,2.4,2.3,3.5,3.6c0.3,0.3,0.6,0.7,0.9,1c1.3,1.4,2.5,2.9,3.6,4.4c9.4,12.4,15,27.9,15,44.6s-5.7,32.2-15,44.6
			c-1.1,1.5-2.4,2.9-3.6,4.4c-0.3,0.3-0.6,0.7-0.9,1c-1.1,1.2-2.3,2.4-3.5,3.6c-0.2,0.1-0.3,0.3-0.5,0.4c-3,2.7-6.1,5.3-9.5,7.5
			c-0.4,0.2-0.7,0.5-1.1,0.7c-0.6,0.4-1.2,0.8-1.9,1.2c-0.9,0.5-1.7,1-2.6,1.5c-1.5,0.8-2.9,1.6-4.4,2.3
			c-11.2,5.2-16.4,8.6-16.4,16.4c0,7.7,6.3,14,14,14c6,0,11-3.8,13-9.1c7.3,7.4,17.4,12,28.5,12c22.1,0,40-17.9,40-40v0
			c0-2.2-0.3-4.2-0.6-6.3c20.5-6,36.2-23.2,39.9-44.5c0.5-3.1,0.8-6.2,0.8-9.4C449.8,319.5,449.5,316.4,449,313.3z"/>
		<path fill="#FFFFFF" d="M274.5,389.8c-1.5-0.7-3-1.5-4.4-2.3c-0.9-0.5-1.7-1-2.6-1.5c-0.6-0.4-1.3-0.8-1.9-1.2
			c-0.4-0.2-0.7-0.5-1.1-0.7c-3.4-2.2-6.5-4.8-9.5-7.5c-0.1-0.1-0.3-0.3-0.5-0.4c-1.2-1.1-2.4-2.3-3.5-3.6c-0.3-0.3-0.6-0.7-0.9-1
			c-1.3-1.4-2.5-2.9-3.6-4.4c-9.4-12.4-15-27.9-15-44.6s5.7-32.2,15-44.6c1.1-1.5,2.4-2.9,3.6-4.4c0.3-0.3,0.6-0.7,0.9-1
			c1.1-1.2,2.3-2.4,3.5-3.6c0.2-0.1,0.3-0.3,0.5-0.4c3-2.7,6.1-5.3,9.5-7.5c0.4-0.2,0.7-0.5,1.1-0.7c0.6-0.4,1.2-0.8,1.9-1.2
			c0.9-0.5,1.7-1,2.6-1.5c1.5-0.8,2.9-1.6,4.4-2.3c11.2-5.2,16.4-8.6,16.4-16.4c0-7.7-6.3-14-14-14c-6,0-11,3.8-13,9.1
			c-7.3-7.4-17.4-12-28.5-12c-22.1,0-40,17.9-40,40c0,0,0,0,0,0c0,2.2,0.3,4.2,0.6,6.3c-20.5,6-36.2,23.2-39.9,44.5
			c-0.5,3.1-0.8,6.2-0.8,9.4s0.3,6.3,0.8,9.4c3.6,21.4,19.4,38.5,39.9,44.5c-0.3,2.1-0.6,4.2-0.6,6.3v0c0,22.1,17.9,40,40,40
			c11.2,0,21.2-4.6,28.5-12c2,5.3,7,9.1,13,9.1c7.7,0,14-6.3,14-14C290.9,398.5,285.7,395,274.5,389.8z"/>
		<path fill="#FFFFFF" d="M346.2,322.7c0-24.1-19.5-43.6-43.6-43.6c-24.1,0-43.6,19.5-43.6,43.6c0,24.1,19.5,43.6,43.6,43.6
			C326.7,366.4,346.2,346.8,346.2,322.7z"/>
	</g>
	<g>
		<path fill="#FFFFFF" d="M134.3,487.4c0,0.6-0.3,1-0.7,1.3c-3,2.3-6.8,3.5-10.6,3.5c-9.4,0-17.3-7.7-17.3-17.3
			c0-9.6,7.9-17.5,17.3-17.5c3.8,0,7.7,1.2,10.6,3.7c1.2,1,0.5,2.7-0.9,2.7c-0.3,0-0.7-0.1-0.9-0.3c-2.4-1.8-5.6-3.1-8.8-3.1
			c-7.8,0-14.3,6.6-14.3,14.5c0,7.8,6.5,14.2,14.3,14.2c3.3,0,6.4-1,8.8-2.9C132.7,485.5,134.3,486,134.3,487.4z"/>
		<path fill="#FFFFFF" d="M143.5,447.9c0-0.3-0.1-0.7-0.5-0.9c-1.1-0.6-1.2-1.2-1.2-1.6c0-1.6,1.6-1.6,1.6-1.6
			c0.9,0,3.1,0.9,3.1,4.1v39.9c0,0.3,0.1,0.7,0.5,0.9c1.1,0.6,1.2,1.2,1.2,1.6c0,1.6-1.6,1.6-1.6,1.6c-0.9,0-3.1-0.9-3.1-4.1
			L143.5,447.9L143.5,447.9z"/>
		<path fill="#FFFFFF" d="M155.7,474.9c0-9.6,7.8-17.4,17.4-17.4s17.3,7.9,17.3,17.4c0,9.6-7.7,17.3-17.3,17.3
			S155.7,484.4,155.7,474.9z M158.7,474.9c0,7.9,6.5,14.3,14.4,14.3s14.3-6.4,14.3-14.3c0-7.9-6.4-14.4-14.3-14.4
			C165.2,460.4,158.7,467,158.7,474.9z"/>
		<path fill="#FFFFFF" d="M223.8,485.5c-1.8,3.9-6.8,6.3-10.8,6.3c-9.7,0-14.7-5.1-14.7-14.8v-15.3c0-0.3-0.1-0.7-0.5-0.9
			c-1.1-0.6-1.2-1.2-1.2-1.6c0-1.6,1.6-1.6,1.6-1.6c0.9,0,3.1,0.9,3.1,4.1v15.3c0,8,3.8,11.9,11.7,11.9c6.1,0,10.8-4.5,10.8-10.5
			v-16.7c0-3.2,2.2-4.1,3.1-4.1c0,0,1.6,0,1.6,1.6c0,0.3-0.1,1-1.2,1.6c-0.3,0.2-0.5,0.6-0.5,0.9v26c0,0.3,0.1,0.7,0.5,0.9
			c1.1,0.6,1.2,1.2,1.2,1.6c0,1.6-1.6,1.6-1.6,1.6c-0.9,0-3.1-0.9-3.1-4.1L223.8,485.5L223.8,485.5z"/>
		<path fill="#FFFFFF" d="M263.5,447.9c0-3.2,2.2-4.1,3.1-4.1c0,0,1.6,0,1.6,1.6c0,0.3-0.1,1-1.2,1.6c-0.3,0.2-0.5,0.6-0.5,0.9v39.9
			c0,0.3,0.1,0.7,0.5,0.9c1.1,0.6,1.2,1.2,1.2,1.6c0,1.6-1.6,1.6-1.6,1.6c-0.9,0-3.1-0.9-3.1-4.1V484c-2.7,6-8.2,7.8-12.7,7.8
			c-9.2,0-15.5-8.1-15.5-17.4c0-8.9,6.6-16.7,15.5-16.7c5,0,9.3,1.5,12.7,7V447.9z M263.5,473.8c0-7-5.4-13.1-12.6-13.1
			c-7.7,0-12.6,6.4-12.6,13.6c0,7.1,4.8,14.4,12.6,14.4c8,0,12.6-7.5,12.6-14.5V473.8z"/>
		<path fill="#FFFFFF" d="M304.5,463.6c0,1.9-1.5,3.3-3.3,3.3c-0.8,0-1.4-0.2-2-0.6c-1.9-1.5-4.3-2.5-6.5-2.5c-6,0.1-11,5.1-11,11
			c0,5.8,4.9,10.9,10.9,10.9c2.2,0,4.6-0.9,6.6-2.4c0.6-0.4,1.2-0.6,2-0.6c1.8,0,3.3,1.5,3.3,3.3c0,1-0.6,1.8-1.4,2.5
			c-2.9,2.4-6.7,3.6-10.4,3.6c-9.7,0-17.4-7.7-17.4-17.3c0-9.6,7.8-17.4,17.4-17.4c3.9,0,7.6,1.2,10.5,3.6
			C304,461.7,304.5,462.5,304.5,463.6z"/>
		<path fill="#FFFFFF" d="M331.2,487.8c-0.7,1-3.1,4.4-8.7,4.4c-6.6,0-12.9-4.4-12.9-11.6c0-8,6.4-11.2,13.2-11.2
			c2.8,0,5.6,0.7,8.1,1.9c0-6.7-2.9-7.7-6.7-7.7c-4.5,0-6.6,0.9-6.6,0.9c-2,0.7-4.1-0.6-4.1-2.7c0-1.6,1-2.8,2.4-3.2
			c2.5-0.7,5.1-1.2,8.1-1.2c9.1,0,13.6,4.3,13.6,11.7v15.7c0,0.7,0.3,1,0.6,1.2c0,0,1.1,0.5,1.1,2.5s-1.4,3.3-3.4,3.3
			C333.3,491.8,331.3,490.3,331.2,487.8z M324.6,474.7c-4,0-8.4,1.2-8.4,6c0,3.5,3.3,5.2,6.4,5.2c3.9,0,8.3-2.4,8.5-6.6v-2.6
			C328.8,475.1,326,474.7,324.6,474.7z"/>
		<path fill="#FFFFFF" d="M370.9,472.9c0-5.6-3.5-8.9-8.9-8.9c-5,0-8.9,4.3-8.9,8.6v14.3c0,3-2,5-4.9,5c-1.8,0-3.4-1.3-3.4-3.3
			c0-2,1.2-2.6,1.2-2.6c0.3-0.2,0.6-0.4,0.6-1.1v-20.1c0-0.7-0.3-0.9-0.6-1.1c0,0-1.2-0.6-1.2-2.6c0-2,1.6-3.3,3.4-3.3
			c2.7,0,4.6,1.8,4.9,4.4c2.1-2.6,6.2-4.7,9.4-4.7c10.6,0,15,5.1,15,15.9v11.5c0,0.7,0.3,0.9,0.6,1.1c0,0,1.2,0.6,1.2,2.6
			c0,2-1.6,3.3-3.4,3.3c-2.9,0-4.9-2-4.9-5L370.9,472.9L370.9,472.9z"/>
		<path fill="#FFFFFF" d="M411.5,472.9c0-5.6-3.5-8.9-8.9-8.9c-5,0-8.9,4.3-8.9,8.6v14.3c0,3-2,5-4.9,5c-1.8,0-3.4-1.3-3.4-3.3
			c0-2,1.2-2.6,1.2-2.6c0.3-0.2,0.6-0.4,0.6-1.1v-20.1c0-0.7-0.3-0.9-0.6-1.1c0,0-1.2-0.6-1.2-2.6c0-2,1.6-3.3,3.4-3.3
			c2.7,0,4.6,1.8,4.9,4.4c2.1-2.6,6.2-4.7,9.4-4.7c10.6,0,15,5.1,15,15.9v11.5c0,0.7,0.3,0.9,0.6,1.1c0,0,1.2,0.6,1.2,2.6
			c0,2-1.6,3.3-3.4,3.3c-2.9,0-4.9-2-4.9-5L411.5,472.9L411.5,472.9z"/>
		<path fill="#FFFFFF" d="M424.6,474.8c0-9.6,7.9-17.4,17.4-17.4c9.6,0,17.4,7.8,17.4,17.4c0,9.5-7.8,17.4-17.4,17.4
			C432.5,492.2,424.6,484.3,424.6,474.8z M431.1,474.8c0,6,4.9,10.8,10.8,10.8c6,0,10.8-4.9,10.8-10.8c0-6-4.9-10.8-10.8-10.8
			C436,464,431.1,468.8,431.1,474.8z"/>
		<path fill="#FFFFFF" d="M490.6,472.9c0-5.6-3.5-8.9-8.9-8.9c-5,0-8.9,4.3-8.9,8.6v14.3c0,3-2,5-4.9,5c-1.8,0-3.4-1.3-3.4-3.3
			c0-2,1.2-2.6,1.2-2.6c0.3-0.2,0.6-0.4,0.6-1.1v-20.1c0-0.7-0.3-0.9-0.6-1.1c0,0-1.2-0.6-1.2-2.6c0-2,1.6-3.3,3.4-3.3
			c2.7,0,4.6,1.8,4.9,4.4c2.1-2.6,6.2-4.7,9.4-4.7c10.6,0,15,5.1,15,15.9v11.5c0,0.7,0.3,0.9,0.6,1.1c0,0,1.2,0.6,1.2,2.6
			c0,2-1.6,3.3-3.4,3.3c-2.9,0-4.9-2-4.9-5L490.6,472.9L490.6,472.9z"/>
	</g>
</g>
</svg>
