<?xml version="1.0" encoding="UTF-8" standalone="no"?>
<svg width="345px" height="95px" viewBox="0 0 345 95" version="1.1" xmlns="http://www.w3.org/2000/svg" xmlns:xlink="http://www.w3.org/1999/xlink" xmlns:sketch="http://www.bohemiancoding.com/sketch/ns">
    <title>Slice 1</title>
    <description>Created with Sketch (http://www.bohemiancoding.com/sketch)</description>
    <defs></defs>
    <g id="Page-1" stroke="none" stroke-width="1" fill="none" fill-rule="evenodd" sketch:type="MSPage">
        <g id="dropbox" sketch:type="MSLayerGroup" transform="translate(-46.000000, -39.000000)">
            <g id="Layer_1" transform="translate(0.000000, 1.000000)"></g>
            <g id="Layer_2" transform="translate(46.000000, 39.000000)" fill="#FFFFFF" sketch:type="MSShapeGroup">
                <g id="Group">
                    <g id="Shape">
                        <path d="M30.116,0.606 L0.486,19.952 L20.974,36.358 L50.849,17.911 L30.116,0.606 Z M30.116,0.606"></path>
                        <path d="M0.486,52.765 L30.116,72.11 L50.849,54.806 L20.974,36.358 L0.486,52.765 Z M0.486,52.765"></path>
                        <path d="M50.849,54.806 L71.582,72.11 L101.211,52.765 L80.724,36.358 L50.849,54.806 Z M50.849,54.806"></path>
                        <path d="M101.211,19.952 L71.582,0.606 L50.849,17.911 L80.724,36.358 L101.211,19.952 Z M101.211,19.952"></path>
                        <path d="M50.909,58.528 L30.116,75.782 L21.219,69.974 L21.219,76.485 L50.909,94.292 L80.601,76.485 L80.601,69.974 L71.704,75.782 L50.909,58.528 Z M50.909,58.528"></path>
                    </g>
                    <path d="M116.297,72.076 L129.995,72.076 C133.987,72.076 139.623,72.076 144.243,68.481 C149.88,64.185 152.776,55.435 152.776,45.668 C152.776,20.042 136.57,19.964 128.586,19.964 L116.297,19.964 L116.297,72.076 L116.297,72.076 L116.297,72.076 L116.297,72.076 Z M127.727,28.95 L129.682,28.95 C134.301,28.95 140.643,29.497 140.643,45.512 C140.643,62.543 134.224,63.092 129.682,63.092 L127.727,63.092 L127.727,28.95 L127.727,28.95 L127.727,28.95 L127.727,28.95 Z M127.727,28.95" id="Shape"></path>
                    <path d="M156.712,33.56 L156.712,72.077 L167.435,72.077 L167.435,55.436 C167.435,52.466 167.435,43.56 175.34,43.56 C175.733,43.56 176.201,43.56 177.139,43.716 L177.139,33.247 C176.593,33.091 176.047,33.011 175.261,33.011 C169,33.011 167.121,39.575 166.182,42.857 L166.182,33.56 L156.712,33.56 L156.712,33.56 L156.712,33.56 L156.712,33.56 Z M156.712,33.56" id="Shape"></path>
                    <path d="M194.333,32.698 C182.827,32.698 178.601,40.747 178.601,52.778 C178.601,65.201 183.139,72.856 194.256,72.856 C205.528,72.856 209.99,65.124 209.99,52.778 C209.99,40.747 205.764,32.698 194.333,32.698 L194.333,32.698 L194.333,32.698 L194.333,32.698 Z M194.333,40.2 C197.623,40.2 198.874,42.856 198.874,52.778 C198.874,63.092 197.465,65.358 194.333,65.358 C191.124,65.358 189.716,63.012 189.716,52.778 C189.716,43.326 190.812,40.2 194.256,40.2 L194.333,40.2 L194.333,40.2 L194.333,40.2 L194.333,40.2 Z M194.333,40.2" id="Shape"></path>
                    <path d="M213.171,33.56 L213.171,85.124 L223.739,85.124 L223.739,69.265 C224.913,70.515 226.87,72.622 231.097,72.622 C243.386,72.622 244.17,57.778 244.17,52.31 C244.17,45.826 242.918,39.809 239.159,35.982 C237.282,34.107 234.385,33.011 231.802,33.011 C226.557,33.011 224.443,36.839 223.112,39.34 L223.112,33.56 L213.171,33.56 L213.171,33.56 L213.171,33.56 L213.171,33.56 Z M223.739,49.028 C223.739,45.59 223.739,40.123 228.592,40.123 C232.741,40.123 233.054,45.513 233.054,52.31 C233.054,60.437 232.664,65.202 228.279,65.202 C223.74,65.202 223.74,61.92 223.74,56.373 L223.74,49.028 L223.74,49.028 L223.739,49.028 L223.739,49.028 Z M223.739,49.028" id="Shape"></path>
                    <path d="M247.363,19.964 L247.363,72.076 L253.705,72.076 C254.565,69.342 254.958,68.561 255.741,67.075 C256.679,69.028 258.48,72.856 264.666,72.856 C266.701,72.856 268.814,72.466 270.928,71.374 C277.974,67.702 278.444,56.138 278.444,52.544 C278.444,43.247 275.469,33.011 265.995,33.011 C261.378,33.011 259.266,35.513 257.933,37.154 L257.933,19.964 L247.363,19.964 L247.363,19.964 L247.363,19.964 L247.363,19.964 Z M257.932,47.153 C257.932,45.2 257.932,43.247 259.187,41.761 C259.969,40.746 261.221,40.122 262.63,40.122 C265.683,40.122 267.326,42.699 267.326,52.855 C267.326,62.779 265.841,65.433 262.472,65.433 C257.931,65.433 257.931,60.435 257.931,56.058 L257.931,47.153 L257.931,47.153 L257.932,47.153 L257.932,47.153 Z M257.932,47.153" id="Shape"></path>
                    <path d="M296.872,32.698 C285.363,32.698 281.136,40.747 281.136,52.778 C281.136,65.201 285.678,72.856 296.793,72.856 C308.065,72.856 312.527,65.124 312.527,52.778 C312.527,40.747 308.299,32.698 296.872,32.698 L296.872,32.698 L296.872,32.698 L296.872,32.698 Z M296.872,40.2 C300.157,40.2 301.411,42.856 301.411,52.778 C301.411,63.092 300.003,65.358 296.872,65.358 C293.661,65.358 292.25,63.012 292.25,52.778 C292.25,43.326 293.348,40.2 296.793,40.2 L296.872,40.2 L296.872,40.2 L296.872,40.2 L296.872,40.2 Z M296.872,40.2" id="Shape"></path>
                    <path d="M312.765,33.56 L322.708,52.389 L311.279,72.077 L320.592,72.077 L327.09,60.515 L332.726,72.077 L344.39,72.077 L332.882,50.514 L342.822,33.561 L333.51,33.561 L328.577,42.466 L324.429,33.561 L312.765,33.561 L312.765,33.561 L312.765,33.56 L312.765,33.56 Z M312.765,33.56" id="Shape"></path>
                </g>
            </g>
        </g>
    </g>
</svg>